<svg width="10" height="18" viewBox="0 0 10 18" fill="none" xmlns="http://www.w3.org/2000/svg">
<path d="M4.025 18V15.85C3.14166 15.65 2.37916 15.2667 1.7375 14.7C1.09583 14.1333 0.624997 13.3333 0.324997 12.3L2.175 11.55C2.425 12.35 2.79583 12.9583 3.2875 13.375C3.77916 13.7917 4.425 14 5.225 14C5.90833 14 6.4875 13.8458 6.9625 13.5375C7.4375 13.2292 7.675 12.75 7.675 12.1C7.675 11.5167 7.49166 11.0542 7.125 10.7125C6.75833 10.3708 5.90833 9.98333 4.575 9.55C3.14166 9.1 2.15833 8.5625 1.625 7.9375C1.09166 7.3125 0.824997 6.55 0.824997 5.65C0.824997 4.56667 1.175 3.725 1.875 3.125C2.575 2.525 3.29166 2.18333 4.025 2.1V0H6.025V2.1C6.85833 2.23333 7.54583 2.5375 8.0875 3.0125C8.62916 3.4875 9.025 4.06667 9.275 4.75L7.425 5.55C7.225 5.01667 6.94166 4.61667 6.575 4.35C6.20833 4.08333 5.70833 3.95 5.075 3.95C4.34166 3.95 3.78333 4.1125 3.4 4.4375C3.01666 4.7625 2.825 5.16667 2.825 5.65C2.825 6.2 3.075 6.63333 3.575 6.95C4.075 7.26667 4.94166 7.6 6.175 7.95C7.325 8.28333 8.19583 8.8125 8.7875 9.5375C9.37916 10.2625 9.675 11.1 9.675 12.05C9.675 13.2333 9.325 14.1333 8.625 14.75C7.925 15.3667 7.05833 15.75 6.025 15.9V18H4.025Z" fill="#1C1B1F"/>
</svg>
