<svg width="20" height="20" viewBox="0 0 20 20" fill="none" xmlns="http://www.w3.org/2000/svg">
<path d="M7.5 20C6.51667 20 5.6875 19.6625 5.0125 18.9875C4.3375 18.3125 4 17.4833 4 16.5C4 16.35 4.02083 16.2333 4.0625 16.15C4.10417 16.0667 4.1 16 4.05 15.95C4 15.9 3.93333 15.8958 3.85 15.9375C3.76667 15.9792 3.65 16 3.5 16C2.51667 16 1.6875 15.6625 1.0125 14.9875C0.3375 14.3125 0 13.4833 0 12.5C0 11.5167 0.3375 10.6875 1.0125 10.0125C1.6875 9.3375 2.51667 9 3.5 9C3.88333 9 4.23333 9.05 4.55 9.15C4.86667 9.25 5.16667 9.4 5.45 9.6L9.6 5.45C9.4 5.16667 9.25 4.86667 9.15 4.55C9.05 4.23333 9 3.88333 9 3.5C9 2.51667 9.3375 1.6875 10.0125 1.0125C10.6875 0.3375 11.5167 0 12.5 0C13.4833 0 14.3125 0.3375 14.9875 1.0125C15.6625 1.6875 16 2.51667 16 3.5C16 3.65 15.9792 3.76667 15.9375 3.85C15.8958 3.93333 15.9 4 15.95 4.05C16 4.1 16.0667 4.10417 16.15 4.0625C16.2333 4.02083 16.35 4 16.5 4C17.4833 4 18.3125 4.3375 18.9875 5.0125C19.6625 5.6875 20 6.51667 20 7.5C20 8.48333 19.6625 9.3125 18.9875 9.9875C18.3125 10.6625 17.4833 11 16.5 11C16.1167 11 15.7667 10.95 15.45 10.85C15.1333 10.75 14.8333 10.6 14.55 10.4L10.4 14.55C10.6 14.8333 10.75 15.1333 10.85 15.45C10.95 15.7667 11 16.1167 11 16.5C11 17.4833 10.6625 18.3125 9.9875 18.9875C9.3125 19.6625 8.48333 20 7.5 20ZM7.5 18C7.93333 18 8.29167 17.8583 8.575 17.575C8.85833 17.2917 9 16.9333 9 16.5C9 16.35 8.97917 16.2042 8.9375 16.0625C8.89583 15.9208 8.83333 15.7833 8.75 15.65C8.46667 15.25 8.35 14.8208 8.4 14.3625C8.45 13.9042 8.65 13.5 9 13.15L13.15 9C13.5 8.65 13.9042 8.45 14.3625 8.4C14.8208 8.35 15.25 8.46667 15.65 8.75C15.7833 8.83333 15.9208 8.89583 16.0625 8.9375C16.2042 8.97917 16.35 9 16.5 9C16.9333 9 17.2917 8.85833 17.575 8.575C17.8583 8.29167 18 7.93333 18 7.5C18 7.06667 17.8583 6.70833 17.575 6.425C17.2917 6.14167 16.9333 6 16.5 6C15.9167 6 15.5083 5.97083 15.275 5.9125C15.0417 5.85417 14.8 5.7 14.55 5.45C14.3 5.2 14.1458 4.95833 14.0875 4.725C14.0292 4.49167 14 4.08333 14 3.5C14 3.06667 13.8583 2.70833 13.575 2.425C13.2917 2.14167 12.9333 2 12.5 2C12.0667 2 11.7083 2.14167 11.425 2.425C11.1417 2.70833 11 3.06667 11 3.5C11 3.68333 11.0167 3.8375 11.05 3.9625C11.0833 4.0875 11.15 4.21667 11.25 4.35C11.5333 4.75 11.65 5.17917 11.6 5.6375C11.55 6.09583 11.35 6.5 11 6.85L6.85 11C6.5 11.35 6.09583 11.55 5.6375 11.6C5.17917 11.65 4.75 11.5333 4.35 11.25C4.21667 11.1667 4.07917 11.1042 3.9375 11.0625C3.79583 11.0208 3.65 11 3.5 11C3.06667 11 2.70833 11.1417 2.425 11.425C2.14167 11.7083 2 12.0667 2 12.5C2 12.9333 2.14167 13.2917 2.425 13.575C2.70833 13.8583 3.06667 14 3.5 14C4.08333 14 4.49167 14.0292 4.725 14.0875C4.95833 14.1458 5.2 14.3 5.45 14.55C5.7 14.8 5.85417 15.0417 5.9125 15.275C5.97083 15.5083 6 15.9167 6 16.5C6 16.9333 6.14167 17.2917 6.425 17.575C6.70833 17.8583 7.06667 18 7.5 18Z" fill="#1C1B1F"/>
</svg>
