<?xml version="1.0" encoding="iso-8859-1"?>
<!-- Uploaded to: SVG Repo, www.svgrepo.com, Generator: SVG Repo Mixer Tools -->
<svg fill="#000000" height="800px" width="800px" version="1.1" id="Layer_1" xmlns="http://www.w3.org/2000/svg" xmlns:xlink="http://www.w3.org/1999/xlink" 
	 viewBox="0 0 512.002 512.002" xml:space="preserve">
<g>
	<g>
		<path d="M362.737,245.299c-1.547-2.888-1.156-9.232-0.884-12.443c0.619-7.054,2.478-18.217,3.413-26.459
			c0.15-1.325-0.519-2.609-1.69-3.246c-1.172-0.637-2.614-0.498-3.643,0.35c-6.851,5.642-14.044,13.903-18.669,22.875
			c-18.195,36.168,15.836,49.237,18.974,54.193c2.189,1.947,1.621,10.662,1.402,13.245c-0.618,7.054-2.471,18.193-3.392,26.487
			c-0.147,1.325,0.523,2.606,1.696,3.24c1.172,0.634,2.613,0.494,3.64-0.354c6.34-5.232,13.812-13.334,18.724-22.868
			C400.788,263.579,365.604,251.09,362.737,245.299z"/>
	</g>
</g>
<g>
	<g>
		<path d="M292.786,111.497h-21.061V78.6c0-15.625-12.666-28.291-28.291-28.291h-8.729V9.622c0-5.314-4.308-9.622-9.622-9.622
			h-50.772c-5.314,0-9.622,4.308-9.622,9.622v40.687h-8.729c-15.625,0-28.291,12.666-28.291,28.291v32.896h-21.063
			c-6.035,0-10.928,4.892-10.928,10.927v27.329H70.598c-22.723,0-41.211,18.487-41.211,41.212v94.347
			c0,22.723,18.487,41.21,41.211,41.21h25.081v145.665c0,21.989,17.826,39.815,39.815,39.815h104.46
			c-9.93-13.555-15.811-30.253-15.811-48.305v-14.824c-10.314-9.242-16.812-22.657-16.812-37.562
			c0-15.545,7.071-29.471,18.162-38.73c5.034-20.461,23.538-35.685,45.53-35.685h32.69V122.423
			C303.714,116.389,298.822,111.497,292.786,111.497z M95.679,292.895H70.598v0.001c-4.183,0-7.587-3.403-7.587-7.587v-94.347
			c0-4.183,3.404-7.588,7.587-7.588h25.081V292.895z"/>
	</g>
</g>
<g>
	<g>
		<path d="M465.802,394.499v-10.722c0-7.346-5.974-13.258-13.257-13.258H271.024c-7.322,0-13.257,5.936-13.257,13.258v10.722
			c-9.284,0-16.812,7.525-16.812,16.812c0,9.3,7.54,16.812,16.812,16.812v35.572c0,26.582,21.543,48.305,48.305,48.305h111.426
			c26.627,0,48.305-21.575,48.305-48.305v-35.572c9.284,0,16.812-7.526,16.812-16.812
			C482.614,402.027,475.086,394.499,465.802,394.499z"/>
	</g>
</g>
</svg>