<svg width="37" height="37" viewBox="0 0 37 37" fill="none" xmlns="http://www.w3.org/2000/svg">
<path d="M9.25 23.125C8.02337 23.125 6.84699 23.6123 5.97963 24.4796C5.11228 25.347 4.625 26.5234 4.625 27.75C4.625 28.9766 5.11228 30.153 5.97963 31.0204C6.84699 31.8877 8.02337 32.375 9.25 32.375C11.2696 32.375 12.9808 31.0954 13.6129 29.2917H15.4167V26.2083H13.6129C12.9808 24.4046 11.2696 23.125 9.25 23.125ZM9.25 26.2083C9.65888 26.2083 10.051 26.3708 10.3401 26.6599C10.6292 26.949 10.7917 27.3411 10.7917 27.75C10.7917 28.1589 10.6292 28.551 10.3401 28.8401C10.051 29.1292 9.65888 29.2917 9.25 29.2917C8.84113 29.2917 8.449 29.1292 8.15988 28.8401C7.87076 28.551 7.70833 28.1589 7.70833 27.75C7.70833 27.3411 7.87076 26.949 8.15988 26.6599C8.449 26.3708 8.84113 26.2083 9.25 26.2083ZM9.25 12.3333C8.66531 12.3333 8.10457 12.1011 7.69113 11.6876C7.27769 11.2742 7.04542 10.7134 7.04542 10.1287C7.04542 8.91083 8.03208 7.92417 9.25 7.92417C10.4679 7.92417 11.4546 8.91083 11.4546 10.1287C11.4546 10.7134 11.2223 11.2742 10.8089 11.6876C10.3954 12.1011 9.83469 12.3333 9.25 12.3333ZM9.25 3.96208C7.6145 3.96208 6.04598 4.61178 4.88951 5.76826C3.73304 6.92473 3.08333 8.49325 3.08333 10.1287C3.08333 14.7383 9.25 21.5833 9.25 21.5833C9.25 21.5833 15.4167 14.7383 15.4167 10.1287C15.4167 8.49325 14.767 6.92473 13.6105 5.76826C12.454 4.61178 10.8855 3.96208 9.25 3.96208ZM23.3871 26.2083H21.5833V29.2917H23.3871C24.0192 31.0954 25.7304 32.375 27.75 32.375C28.9766 32.375 30.153 31.8877 31.0204 31.0204C31.8877 30.153 32.375 28.9766 32.375 27.75C32.375 25.7304 31.0954 24.0192 29.2917 23.3871V21.5833H26.2083V23.3871C24.8979 23.8496 23.8496 24.8979 23.3871 26.2083ZM27.75 26.2083C28.1589 26.2083 28.551 26.3708 28.8401 26.6599C29.1292 26.949 29.2917 27.3411 29.2917 27.75C29.2917 28.1589 29.1292 28.551 28.8401 28.8401C28.551 29.1292 28.1589 29.2917 27.75 29.2917C27.3411 29.2917 26.949 29.1292 26.6599 28.8401C26.3708 28.551 26.2083 28.1589 26.2083 27.75C26.2083 27.3411 26.3708 26.949 26.6599 26.6599C26.949 26.3708 27.3411 26.2083 27.75 26.2083ZM27.75 4.625C26.5234 4.625 25.347 5.11227 24.4796 5.97963C23.6123 6.84699 23.125 8.02337 23.125 9.25C23.125 11.2696 24.4046 12.9808 26.2083 13.6129V15.4167H29.2917V13.6129C31.0954 12.9808 32.375 11.2696 32.375 9.25C32.375 8.02337 31.8877 6.84699 31.0204 5.97963C30.153 5.11227 28.9766 4.625 27.75 4.625ZM27.75 7.70833C28.1589 7.70833 28.551 7.87076 28.8401 8.15988C29.1292 8.44899 29.2917 8.84112 29.2917 9.25C29.2917 9.65887 29.1292 10.051 28.8401 10.3401C28.551 10.6292 28.1589 10.7917 27.75 10.7917C27.3411 10.7917 26.949 10.6292 26.6599 10.3401C26.3708 10.051 26.2083 9.65887 26.2083 9.25C26.2083 8.84112 26.3708 8.44899 26.6599 8.15988C26.949 7.87076 27.3411 7.70833 27.75 7.70833ZM20.0417 29.2917V26.2083H16.9583V29.2917H20.0417ZM26.2083 20.0417H29.2917V16.9583H26.2083V20.0417Z" fill="black"/>
</svg>
